<?xml version="1.0" encoding="UTF-8"?><svg xmlns="http://www.w3.org/2000/svg" xmlns:xlink="http://www.w3.org/1999/xlink" stroke-dasharray="none" shape-rendering="auto" font-family="'Dialog'" width="1141" text-rendering="auto" fill-opacity="1" contentScriptType="text/ecmascript" color-interpolation="auto" color-rendering="auto" preserveAspectRatio="xMidYMid meet" font-size="12px" fill="black" stroke="black" image-rendering="auto" stroke-miterlimit="10" zoomAndPan="magnify" version="1.0" stroke-linecap="square" stroke-linejoin="miter" contentStyleType="text/css" font-style="normal" height="667" stroke-width="1" stroke-dashoffset="0" font-weight="normal" stroke-opacity="1">
    <!--Generated by the Batik Graphics2D SVG Generator-->
    <defs id="genericDefs"/>
    <g>
        <defs id="defs1">
            <clipPath clipPathUnits="userSpaceOnUse" id="clipPath1">
                <path d="M26 31 L1115 31 L1115 648 L26 648 L26 31 Z"/>
            </clipPath>
            <clipPath clipPathUnits="userSpaceOnUse" id="clipPath2">
                <path d="M-1 -1 L1142 -1 L1142 668 L-1 668 L-1 -1 Z"/>
            </clipPath>
            <clipPath clipPathUnits="userSpaceOnUse" id="clipPath3">
                <path d="M908 36 L1111 36 L1111 59 L908 59 L908 36 Z"/>
            </clipPath>
        </defs>
        <g font-size="13px" fill="white" text-rendering="optimizeLegibility" font-family="'.AppleSystemUIFont'" stroke-linejoin="round" stroke="white" stroke-width="0" stroke-miterlimit="0">
            <rect x="27" width="1087" height="615" y="32" clip-path="url(#clipPath1)" stroke="none"/>
        </g>
        <g stroke-linecap="butt" font-size="13px" fill="rgb(204,204,204)" text-rendering="optimizeLegibility" font-family="'.AppleSystemUIFont'" stroke-dasharray="3,3" stroke="rgb(204,204,204)">
            <line y2="647" fill="none" x1="27" clip-path="url(#clipPath1)" x2="1114" y1="647"/>
            <line y2="542" fill="none" x1="27" clip-path="url(#clipPath1)" x2="1114" y1="542"/>
            <line y2="437" fill="none" x1="27" clip-path="url(#clipPath1)" x2="1114" y1="437"/>
            <line y2="332" fill="none" x1="27" clip-path="url(#clipPath1)" x2="1114" y1="332"/>
            <line y2="227" fill="none" x1="27" clip-path="url(#clipPath1)" x2="1114" y1="227"/>
            <line y2="122" fill="none" x1="27" clip-path="url(#clipPath1)" x2="1114" y1="122"/>
            <rect x="117" y="607" clip-path="url(#clipPath1)" fill="rgb(31,119,180)" width="13" height="40" stroke="none"/>
            <rect x="117" y="607" clip-path="url(#clipPath1)" fill="none" width="13" stroke-dasharray="none" height="40" stroke="black"/>
            <line clip-path="url(#clipPath1)" fill="none" x1="130" x2="143" y1="647" y2="647" stroke-dasharray="none" stroke="black"/>
            <line clip-path="url(#clipPath1)" fill="none" x1="143" x2="155" y1="647" y2="647" stroke-dasharray="none" stroke="black"/>
            <line clip-path="url(#clipPath1)" fill="none" x1="155" x2="168" y1="647" y2="647" stroke-dasharray="none" stroke="black"/>
            <rect x="168" y="615" clip-path="url(#clipPath1)" fill="rgb(31,119,180)" width="13" stroke-dasharray="none" height="32" stroke="none"/>
            <rect x="168" y="615" clip-path="url(#clipPath1)" fill="none" width="13" stroke-dasharray="none" height="32" stroke="black"/>
            <line clip-path="url(#clipPath1)" fill="none" x1="181" x2="194" y1="647" y2="647" stroke-dasharray="none" stroke="black"/>
            <line clip-path="url(#clipPath1)" fill="none" x1="194" x2="206" y1="647" y2="647" stroke-dasharray="none" stroke="black"/>
            <line clip-path="url(#clipPath1)" fill="none" x1="206" x2="219" y1="647" y2="647" stroke-dasharray="none" stroke="black"/>
            <rect x="219" y="238" clip-path="url(#clipPath1)" fill="rgb(31,119,180)" width="13" stroke-dasharray="none" height="409" stroke="none"/>
            <rect x="219" y="238" clip-path="url(#clipPath1)" fill="none" width="13" stroke-dasharray="none" height="409" stroke="black"/>
            <rect x="232" y="540" clip-path="url(#clipPath1)" fill="rgb(31,119,180)" width="13" stroke-dasharray="none" height="107" stroke="none"/>
            <rect x="232" y="540" clip-path="url(#clipPath1)" fill="none" width="13" stroke-dasharray="none" height="107" stroke="black"/>
            <line clip-path="url(#clipPath1)" fill="none" x1="245" x2="257" y1="647" y2="647" stroke-dasharray="none" stroke="black"/>
            <rect x="257" y="548" clip-path="url(#clipPath1)" fill="rgb(31,119,180)" width="13" stroke-dasharray="none" height="99" stroke="none"/>
            <rect x="257" y="548" clip-path="url(#clipPath1)" fill="none" width="13" stroke-dasharray="none" height="99" stroke="black"/>
            <line clip-path="url(#clipPath1)" fill="none" x1="270" x2="283" y1="647" y2="647" stroke-dasharray="none" stroke="black"/>
            <rect x="283" y="626" clip-path="url(#clipPath1)" fill="rgb(31,119,180)" width="13" stroke-dasharray="none" height="21" stroke="none"/>
            <rect x="283" y="626" clip-path="url(#clipPath1)" fill="none" width="13" stroke-dasharray="none" height="21" stroke="black"/>
            <line clip-path="url(#clipPath1)" fill="none" x1="296" x2="308" y1="647" y2="647" stroke-dasharray="none" stroke="black"/>
            <line clip-path="url(#clipPath1)" fill="none" x1="308" x2="321" y1="647" y2="647" stroke-dasharray="none" stroke="black"/>
            <line clip-path="url(#clipPath1)" fill="none" x1="321" x2="334" y1="647" y2="647" stroke-dasharray="none" stroke="black"/>
            <rect x="334" y="502" clip-path="url(#clipPath1)" fill="rgb(31,119,180)" width="13" stroke-dasharray="none" height="145" stroke="none"/>
            <rect x="334" y="502" clip-path="url(#clipPath1)" fill="none" width="13" stroke-dasharray="none" height="145" stroke="black"/>
            <line clip-path="url(#clipPath1)" fill="none" x1="347" x2="359" y1="647" y2="647" stroke-dasharray="none" stroke="black"/>
            <rect x="359" y="636" clip-path="url(#clipPath1)" fill="rgb(31,119,180)" width="13" stroke-dasharray="none" height="11" stroke="none"/>
            <rect x="359" y="636" clip-path="url(#clipPath1)" fill="none" width="13" stroke-dasharray="none" height="11" stroke="black"/>
            <line clip-path="url(#clipPath1)" fill="none" x1="372" x2="385" y1="647" y2="647" stroke-dasharray="none" stroke="black"/>
            <line clip-path="url(#clipPath1)" fill="none" x1="385" x2="398" y1="647" y2="647" stroke-dasharray="none" stroke="black"/>
            <line clip-path="url(#clipPath1)" fill="none" x1="398" x2="411" y1="647" y2="647" stroke-dasharray="none" stroke="black"/>
            <rect x="411" y="640" clip-path="url(#clipPath1)" fill="rgb(31,119,180)" width="12" stroke-dasharray="none" height="7" stroke="none"/>
            <rect x="411" y="640" clip-path="url(#clipPath1)" fill="none" width="12" stroke-dasharray="none" height="7" stroke="black"/>
            <line clip-path="url(#clipPath1)" fill="none" x1="423" x2="436" y1="647" y2="647" stroke-dasharray="none" stroke="black"/>
            <line clip-path="url(#clipPath1)" fill="none" x1="436" x2="449" y1="647" y2="647" stroke-dasharray="none" stroke="black"/>
            <line clip-path="url(#clipPath1)" fill="none" x1="449" x2="462" y1="647" y2="647" stroke-dasharray="none" stroke="black"/>
            <line clip-path="url(#clipPath1)" fill="none" x1="462" x2="474" y1="647" y2="647" stroke-dasharray="none" stroke="black"/>
            <line clip-path="url(#clipPath1)" fill="none" x1="474" x2="487" y1="647" y2="647" stroke-dasharray="none" stroke="black"/>
            <line clip-path="url(#clipPath1)" fill="none" x1="487" x2="500" y1="647" y2="647" stroke-dasharray="none" stroke="black"/>
            <line clip-path="url(#clipPath1)" fill="none" x1="500" x2="513" y1="647" y2="647" stroke-dasharray="none" stroke="black"/>
            <rect x="513" y="546" clip-path="url(#clipPath1)" fill="rgb(31,119,180)" width="12" stroke-dasharray="none" height="101" stroke="none"/>
            <rect x="513" y="546" clip-path="url(#clipPath1)" fill="none" width="12" stroke-dasharray="none" height="101" stroke="black"/>
            <line clip-path="url(#clipPath1)" fill="none" x1="525" x2="538" y1="647" y2="647" stroke-dasharray="none" stroke="black"/>
            <rect x="538" y="617" clip-path="url(#clipPath1)" fill="rgb(31,119,180)" width="13" stroke-dasharray="none" height="30" stroke="none"/>
            <rect x="538" y="617" clip-path="url(#clipPath1)" fill="none" width="13" stroke-dasharray="none" height="30" stroke="black"/>
            <line clip-path="url(#clipPath1)" fill="none" x1="551" x2="564" y1="647" y2="647" stroke-dasharray="none" stroke="black"/>
            <line clip-path="url(#clipPath1)" fill="none" x1="564" x2="576" y1="647" y2="647" stroke-dasharray="none" stroke="black"/>
            <line clip-path="url(#clipPath1)" fill="none" x1="576" x2="589" y1="647" y2="647" stroke-dasharray="none" stroke="black"/>
            <rect x="589" y="426" clip-path="url(#clipPath1)" fill="rgb(31,119,180)" width="13" stroke-dasharray="none" height="221" stroke="none"/>
            <rect x="589" y="426" clip-path="url(#clipPath1)" fill="none" width="13" stroke-dasharray="none" height="221" stroke="black"/>
            <rect x="602" y="571" clip-path="url(#clipPath1)" fill="rgb(31,119,180)" width="13" stroke-dasharray="none" height="76" stroke="none"/>
            <rect x="602" y="571" clip-path="url(#clipPath1)" fill="none" width="13" stroke-dasharray="none" height="76" stroke="black"/>
            <line clip-path="url(#clipPath1)" fill="none" x1="615" x2="627" y1="647" y2="647" stroke-dasharray="none" stroke="black"/>
            <rect x="627" y="546" clip-path="url(#clipPath1)" fill="rgb(31,119,180)" width="13" stroke-dasharray="none" height="101" stroke="none"/>
            <rect x="627" y="546" clip-path="url(#clipPath1)" fill="none" width="13" stroke-dasharray="none" height="101" stroke="black"/>
            <line clip-path="url(#clipPath1)" fill="none" x1="640" x2="653" y1="647" y2="647" stroke-dasharray="none" stroke="black"/>
            <rect x="653" y="456" clip-path="url(#clipPath1)" fill="rgb(31,119,180)" width="13" stroke-dasharray="none" height="191" stroke="none"/>
            <rect x="653" y="456" clip-path="url(#clipPath1)" fill="none" width="13" stroke-dasharray="none" height="191" stroke="black"/>
            <line clip-path="url(#clipPath1)" fill="none" x1="666" x2="678" y1="647" y2="647" stroke-dasharray="none" stroke="black"/>
            <rect x="678" y="397" clip-path="url(#clipPath1)" fill="rgb(31,119,180)" width="13" stroke-dasharray="none" height="250" stroke="none"/>
            <rect x="678" y="397" clip-path="url(#clipPath1)" fill="none" width="13" stroke-dasharray="none" height="250" stroke="black"/>
            <line clip-path="url(#clipPath1)" fill="none" x1="691" x2="704" y1="647" y2="647" stroke-dasharray="none" stroke="black"/>
            <rect x="704" y="588" clip-path="url(#clipPath1)" fill="rgb(31,119,180)" width="13" stroke-dasharray="none" height="59" stroke="none"/>
            <rect x="704" y="588" clip-path="url(#clipPath1)" fill="none" width="13" stroke-dasharray="none" height="59" stroke="black"/>
            <line clip-path="url(#clipPath1)" fill="none" x1="717" x2="729" y1="647" y2="647" stroke-dasharray="none" stroke="black"/>
            <rect x="729" y="345" clip-path="url(#clipPath1)" fill="rgb(31,119,180)" width="13" stroke-dasharray="none" height="302" stroke="none"/>
            <rect x="729" y="345" clip-path="url(#clipPath1)" fill="none" width="13" stroke-dasharray="none" height="302" stroke="black"/>
            <rect x="742" y="575" clip-path="url(#clipPath1)" fill="rgb(31,119,180)" width="13" stroke-dasharray="none" height="72" stroke="none"/>
            <rect x="742" y="575" clip-path="url(#clipPath1)" fill="none" width="13" stroke-dasharray="none" height="72" stroke="black"/>
            <line clip-path="url(#clipPath1)" fill="none" x1="755" x2="768" y1="647" y2="647" stroke-dasharray="none" stroke="black"/>
            <rect x="768" y="185" clip-path="url(#clipPath1)" fill="rgb(31,119,180)" width="13" stroke-dasharray="none" height="462" stroke="none"/>
            <rect x="768" y="185" clip-path="url(#clipPath1)" fill="none" width="13" stroke-dasharray="none" height="462" stroke="black"/>
            <line clip-path="url(#clipPath1)" fill="none" x1="781" x2="793" y1="647" y2="647" stroke-dasharray="none" stroke="black"/>
            <rect x="793" y="456" clip-path="url(#clipPath1)" fill="rgb(31,119,180)" width="13" stroke-dasharray="none" height="191" stroke="none"/>
            <rect x="793" y="456" clip-path="url(#clipPath1)" fill="none" width="13" stroke-dasharray="none" height="191" stroke="black"/>
            <line clip-path="url(#clipPath1)" fill="none" x1="806" x2="819" y1="647" y2="647" stroke-dasharray="none" stroke="black"/>
            <line clip-path="url(#clipPath1)" fill="none" x1="819" x2="832" y1="647" y2="647" stroke-dasharray="none" stroke="black"/>
            <rect x="832" y="640" clip-path="url(#clipPath1)" fill="rgb(31,119,180)" width="12" stroke-dasharray="none" height="7" stroke="none"/>
            <rect x="832" y="640" clip-path="url(#clipPath1)" fill="none" width="12" stroke-dasharray="none" height="7" stroke="black"/>
            <line clip-path="url(#clipPath1)" fill="none" x1="844" x2="857" y1="647" y2="647" stroke-dasharray="none" stroke="black"/>
            <line clip-path="url(#clipPath1)" fill="none" x1="857" x2="870" y1="647" y2="647" stroke-dasharray="none" stroke="black"/>
            <line clip-path="url(#clipPath1)" fill="none" x1="870" x2="883" y1="647" y2="647" stroke-dasharray="none" stroke="black"/>
            <line clip-path="url(#clipPath1)" fill="none" x1="883" x2="895" y1="647" y2="647" stroke-dasharray="none" stroke="black"/>
            <line clip-path="url(#clipPath1)" fill="none" x1="895" x2="908" y1="647" y2="647" stroke-dasharray="none" stroke="black"/>
            <line clip-path="url(#clipPath1)" fill="none" x1="908" x2="921" y1="647" y2="647" stroke-dasharray="none" stroke="black"/>
            <line clip-path="url(#clipPath1)" fill="none" x1="921" x2="934" y1="647" y2="647" stroke-dasharray="none" stroke="black"/>
            <rect x="934" y="577" clip-path="url(#clipPath1)" fill="rgb(31,119,180)" width="12" stroke-dasharray="none" height="70" stroke="none"/>
            <rect x="934" y="577" clip-path="url(#clipPath1)" fill="none" width="12" stroke-dasharray="none" height="70" stroke="black"/>
            <line clip-path="url(#clipPath1)" fill="none" x1="946" x2="959" y1="647" y2="647" stroke-dasharray="none" stroke="black"/>
            <rect x="959" y="493" clip-path="url(#clipPath1)" fill="rgb(31,119,180)" width="13" stroke-dasharray="none" height="154" stroke="none"/>
            <rect x="959" y="493" clip-path="url(#clipPath1)" fill="none" width="13" stroke-dasharray="none" height="154" stroke="black"/>
            <line clip-path="url(#clipPath1)" fill="none" x1="972" x2="985" y1="647" y2="647" stroke-dasharray="none" stroke="black"/>
            <rect x="985" y="613" clip-path="url(#clipPath1)" fill="rgb(31,119,180)" width="12" stroke-dasharray="none" height="34" stroke="none"/>
            <rect x="985" y="613" clip-path="url(#clipPath1)" fill="none" width="12" stroke-dasharray="none" height="34" stroke="black"/>
            <line clip-path="url(#clipPath1)" fill="none" x1="997" x2="1010" y1="647" y2="647" stroke-dasharray="none" stroke="black"/>
            <rect x="1010" y="621" clip-path="url(#clipPath1)" fill="rgb(31,119,180)" width="13" stroke-dasharray="none" height="26" stroke="none"/>
            <rect x="1010" y="621" clip-path="url(#clipPath1)" fill="none" width="13" stroke-dasharray="none" height="26" stroke="black"/>
            <rect x="27" y="32" clip-path="url(#clipPath2)" fill="none" width="1087" stroke-dasharray="none" height="615" stroke="black"/>
        </g>
        <g text-rendering="optimizeLegibility" font-size="10px" font-family="'Arial'" stroke-linecap="butt">
            <text x="462" xml:space="preserve" y="10" clip-path="url(#clipPath2)" stroke="none">end-to-end delay in RoutedNetwork.host1.app[0]</text>
            <rect x="909" y="37" clip-path="url(#clipPath3)" fill="white" width="200" opacity="0.753" height="20" stroke="none"/>
            <polygon fill="rgb(31,119,180)" clip-path="url(#clipPath3)" points=" 918 43 918 51 926 51 926 43" stroke="none"/>
            <text x="931" xml:space="preserve" font-size="8px" y="50" clip-path="url(#clipPath3)" stroke="none">end-to-end delay in RoutedNetwork.host1.app[0]</text>
            <line y2="30" fill="none" x1="27" clip-path="url(#clipPath2)" x2="1114" y1="30"/>
            <line y2="649" fill="none" x1="27" clip-path="url(#clipPath2)" x2="1114" y1="649"/>
            <line y2="30" fill="none" x1="41" clip-path="url(#clipPath2)" x2="41" y1="28"/>
            <line y2="649" fill="none" x1="41" clip-path="url(#clipPath2)" x2="41" y1="651"/>
            <line y2="30" fill="none" x1="66" clip-path="url(#clipPath2)" x2="66" y1="26"/>
            <line y2="649" fill="none" x1="66" clip-path="url(#clipPath2)" x2="66" y1="653"/>
            <text x="63" xml:space="preserve" font-size="8px" y="23" clip-path="url(#clipPath2)" stroke="none">-2</text>
            <text x="63" xml:space="preserve" font-size="8px" y="662" clip-path="url(#clipPath2)" stroke="none">-2</text>
            <line y2="30" fill="none" x1="92" clip-path="url(#clipPath2)" x2="92" y1="28"/>
            <line y2="649" fill="none" x1="92" clip-path="url(#clipPath2)" x2="92" y1="651"/>
            <line y2="30" fill="none" x1="117" clip-path="url(#clipPath2)" x2="117" y1="26"/>
            <line y2="649" fill="none" x1="117" clip-path="url(#clipPath2)" x2="117" y1="653"/>
            <text x="116" xml:space="preserve" font-size="8px" y="23" clip-path="url(#clipPath2)" stroke="none">0</text>
            <text x="116" xml:space="preserve" font-size="8px" y="662" clip-path="url(#clipPath2)" stroke="none">0</text>
            <line y2="30" fill="none" x1="143" clip-path="url(#clipPath2)" x2="143" y1="28"/>
            <line y2="649" fill="none" x1="143" clip-path="url(#clipPath2)" x2="143" y1="651"/>
            <line y2="30" fill="none" x1="168" clip-path="url(#clipPath2)" x2="168" y1="26"/>
            <line y2="649" fill="none" x1="168" clip-path="url(#clipPath2)" x2="168" y1="653"/>
            <text x="167" xml:space="preserve" font-size="8px" y="23" clip-path="url(#clipPath2)" stroke="none">2</text>
            <text x="167" xml:space="preserve" font-size="8px" y="662" clip-path="url(#clipPath2)" stroke="none">2</text>
            <line y2="30" fill="none" x1="194" clip-path="url(#clipPath2)" x2="194" y1="28"/>
            <line y2="649" fill="none" x1="194" clip-path="url(#clipPath2)" x2="194" y1="651"/>
            <line y2="30" fill="none" x1="219" clip-path="url(#clipPath2)" x2="219" y1="26"/>
            <line y2="649" fill="none" x1="219" clip-path="url(#clipPath2)" x2="219" y1="653"/>
            <text x="218" xml:space="preserve" font-size="8px" y="23" clip-path="url(#clipPath2)" stroke="none">4</text>
            <text x="218" xml:space="preserve" font-size="8px" y="662" clip-path="url(#clipPath2)" stroke="none">4</text>
            <line y2="30" fill="none" x1="245" clip-path="url(#clipPath2)" x2="245" y1="28"/>
            <line y2="649" fill="none" x1="245" clip-path="url(#clipPath2)" x2="245" y1="651"/>
            <line y2="30" fill="none" x1="270" clip-path="url(#clipPath2)" x2="270" y1="26"/>
            <line y2="649" fill="none" x1="270" clip-path="url(#clipPath2)" x2="270" y1="653"/>
            <text x="269" xml:space="preserve" font-size="8px" y="23" clip-path="url(#clipPath2)" stroke="none">6</text>
            <text x="269" xml:space="preserve" font-size="8px" y="662" clip-path="url(#clipPath2)" stroke="none">6</text>
            <line y2="30" fill="none" x1="296" clip-path="url(#clipPath2)" x2="296" y1="28"/>
            <line y2="649" fill="none" x1="296" clip-path="url(#clipPath2)" x2="296" y1="651"/>
            <line y2="30" fill="none" x1="321" clip-path="url(#clipPath2)" x2="321" y1="26"/>
            <line y2="649" fill="none" x1="321" clip-path="url(#clipPath2)" x2="321" y1="653"/>
            <text x="320" xml:space="preserve" font-size="8px" y="23" clip-path="url(#clipPath2)" stroke="none">8</text>
            <text x="320" xml:space="preserve" font-size="8px" y="662" clip-path="url(#clipPath2)" stroke="none">8</text>
            <line y2="30" fill="none" x1="347" clip-path="url(#clipPath2)" x2="347" y1="28"/>
            <line y2="649" fill="none" x1="347" clip-path="url(#clipPath2)" x2="347" y1="651"/>
            <line y2="30" fill="none" x1="372" clip-path="url(#clipPath2)" x2="372" y1="26"/>
            <line y2="649" fill="none" x1="372" clip-path="url(#clipPath2)" x2="372" y1="653"/>
            <text x="369" xml:space="preserve" font-size="8px" y="23" clip-path="url(#clipPath2)" stroke="none">10</text>
            <text x="369" xml:space="preserve" font-size="8px" y="662" clip-path="url(#clipPath2)" stroke="none">10</text>
            <line y2="30" fill="none" x1="398" clip-path="url(#clipPath2)" x2="398" y1="28"/>
            <line y2="649" fill="none" x1="398" clip-path="url(#clipPath2)" x2="398" y1="651"/>
            <line y2="30" fill="none" x1="423" clip-path="url(#clipPath2)" x2="423" y1="26"/>
            <line y2="649" fill="none" x1="423" clip-path="url(#clipPath2)" x2="423" y1="653"/>
            <text x="420" xml:space="preserve" font-size="8px" y="23" clip-path="url(#clipPath2)" stroke="none">12</text>
            <text x="420" xml:space="preserve" font-size="8px" y="662" clip-path="url(#clipPath2)" stroke="none">12</text>
            <line y2="30" fill="none" x1="449" clip-path="url(#clipPath2)" x2="449" y1="28"/>
            <line y2="649" fill="none" x1="449" clip-path="url(#clipPath2)" x2="449" y1="651"/>
            <line y2="30" fill="none" x1="474" clip-path="url(#clipPath2)" x2="474" y1="26"/>
            <line y2="649" fill="none" x1="474" clip-path="url(#clipPath2)" x2="474" y1="653"/>
            <text x="471" xml:space="preserve" font-size="8px" y="23" clip-path="url(#clipPath2)" stroke="none">14</text>
            <text x="471" xml:space="preserve" font-size="8px" y="662" clip-path="url(#clipPath2)" stroke="none">14</text>
            <line y2="30" fill="none" x1="500" clip-path="url(#clipPath2)" x2="500" y1="28"/>
            <line y2="649" fill="none" x1="500" clip-path="url(#clipPath2)" x2="500" y1="651"/>
            <line y2="30" fill="none" x1="525" clip-path="url(#clipPath2)" x2="525" y1="26"/>
            <line y2="649" fill="none" x1="525" clip-path="url(#clipPath2)" x2="525" y1="653"/>
            <text x="522" xml:space="preserve" font-size="8px" y="23" clip-path="url(#clipPath2)" stroke="none">16</text>
            <text x="522" xml:space="preserve" font-size="8px" y="662" clip-path="url(#clipPath2)" stroke="none">16</text>
            <line y2="30" fill="none" x1="551" clip-path="url(#clipPath2)" x2="551" y1="28"/>
            <line y2="649" fill="none" x1="551" clip-path="url(#clipPath2)" x2="551" y1="651"/>
            <line y2="30" fill="none" x1="576" clip-path="url(#clipPath2)" x2="576" y1="26"/>
            <line y2="649" fill="none" x1="576" clip-path="url(#clipPath2)" x2="576" y1="653"/>
            <text x="573" xml:space="preserve" font-size="8px" y="23" clip-path="url(#clipPath2)" stroke="none">18</text>
            <text x="573" xml:space="preserve" font-size="8px" y="662" clip-path="url(#clipPath2)" stroke="none">18</text>
            <line y2="30" fill="none" x1="602" clip-path="url(#clipPath2)" x2="602" y1="28"/>
            <line y2="649" fill="none" x1="602" clip-path="url(#clipPath2)" x2="602" y1="651"/>
            <line y2="30" fill="none" x1="627" clip-path="url(#clipPath2)" x2="627" y1="26"/>
            <line y2="649" fill="none" x1="627" clip-path="url(#clipPath2)" x2="627" y1="653"/>
            <text x="624" xml:space="preserve" font-size="8px" y="23" clip-path="url(#clipPath2)" stroke="none">20</text>
            <text x="624" xml:space="preserve" font-size="8px" y="662" clip-path="url(#clipPath2)" stroke="none">20</text>
            <line y2="30" fill="none" x1="653" clip-path="url(#clipPath2)" x2="653" y1="28"/>
            <line y2="649" fill="none" x1="653" clip-path="url(#clipPath2)" x2="653" y1="651"/>
            <line y2="30" fill="none" x1="678" clip-path="url(#clipPath2)" x2="678" y1="26"/>
            <line y2="649" fill="none" x1="678" clip-path="url(#clipPath2)" x2="678" y1="653"/>
            <text x="675" xml:space="preserve" font-size="8px" y="23" clip-path="url(#clipPath2)" stroke="none">22</text>
            <text x="675" xml:space="preserve" font-size="8px" y="662" clip-path="url(#clipPath2)" stroke="none">22</text>
            <line y2="30" fill="none" x1="704" clip-path="url(#clipPath2)" x2="704" y1="28"/>
            <line y2="649" fill="none" x1="704" clip-path="url(#clipPath2)" x2="704" y1="651"/>
            <line y2="30" fill="none" x1="729" clip-path="url(#clipPath2)" x2="729" y1="26"/>
            <line y2="649" fill="none" x1="729" clip-path="url(#clipPath2)" x2="729" y1="653"/>
            <text x="726" xml:space="preserve" font-size="8px" y="23" clip-path="url(#clipPath2)" stroke="none">24</text>
            <text x="726" xml:space="preserve" font-size="8px" y="662" clip-path="url(#clipPath2)" stroke="none">24</text>
            <line y2="30" fill="none" x1="755" clip-path="url(#clipPath2)" x2="755" y1="28"/>
            <line y2="649" fill="none" x1="755" clip-path="url(#clipPath2)" x2="755" y1="651"/>
            <line y2="30" fill="none" x1="781" clip-path="url(#clipPath2)" x2="781" y1="26"/>
            <line y2="649" fill="none" x1="781" clip-path="url(#clipPath2)" x2="781" y1="653"/>
            <text x="778" xml:space="preserve" font-size="8px" y="23" clip-path="url(#clipPath2)" stroke="none">26</text>
            <text x="778" xml:space="preserve" font-size="8px" y="662" clip-path="url(#clipPath2)" stroke="none">26</text>
            <line y2="30" fill="none" x1="806" clip-path="url(#clipPath2)" x2="806" y1="28"/>
            <line y2="649" fill="none" x1="806" clip-path="url(#clipPath2)" x2="806" y1="651"/>
            <line y2="30" fill="none" x1="832" clip-path="url(#clipPath2)" x2="832" y1="26"/>
            <line y2="649" fill="none" x1="832" clip-path="url(#clipPath2)" x2="832" y1="653"/>
            <text x="829" xml:space="preserve" font-size="8px" y="23" clip-path="url(#clipPath2)" stroke="none">28</text>
            <text x="829" xml:space="preserve" font-size="8px" y="662" clip-path="url(#clipPath2)" stroke="none">28</text>
            <line y2="30" fill="none" x1="857" clip-path="url(#clipPath2)" x2="857" y1="28"/>
            <line y2="649" fill="none" x1="857" clip-path="url(#clipPath2)" x2="857" y1="651"/>
            <line y2="30" fill="none" x1="883" clip-path="url(#clipPath2)" x2="883" y1="26"/>
            <line y2="649" fill="none" x1="883" clip-path="url(#clipPath2)" x2="883" y1="653"/>
            <text x="880" xml:space="preserve" font-size="8px" y="23" clip-path="url(#clipPath2)" stroke="none">30</text>
            <text x="880" xml:space="preserve" font-size="8px" y="662" clip-path="url(#clipPath2)" stroke="none">30</text>
            <line y2="30" fill="none" x1="908" clip-path="url(#clipPath2)" x2="908" y1="28"/>
            <line y2="649" fill="none" x1="908" clip-path="url(#clipPath2)" x2="908" y1="651"/>
            <line y2="30" fill="none" x1="934" clip-path="url(#clipPath2)" x2="934" y1="26"/>
            <line y2="649" fill="none" x1="934" clip-path="url(#clipPath2)" x2="934" y1="653"/>
            <text x="931" xml:space="preserve" font-size="8px" y="23" clip-path="url(#clipPath2)" stroke="none">32</text>
            <text x="931" xml:space="preserve" font-size="8px" y="662" clip-path="url(#clipPath2)" stroke="none">32</text>
            <line y2="30" fill="none" x1="959" clip-path="url(#clipPath2)" x2="959" y1="28"/>
            <line y2="649" fill="none" x1="959" clip-path="url(#clipPath2)" x2="959" y1="651"/>
            <line y2="30" fill="none" x1="985" clip-path="url(#clipPath2)" x2="985" y1="26"/>
            <line y2="649" fill="none" x1="985" clip-path="url(#clipPath2)" x2="985" y1="653"/>
            <text x="982" xml:space="preserve" font-size="8px" y="23" clip-path="url(#clipPath2)" stroke="none">34</text>
            <text x="982" xml:space="preserve" font-size="8px" y="662" clip-path="url(#clipPath2)" stroke="none">34</text>
            <line y2="30" fill="none" x1="1010" clip-path="url(#clipPath2)" x2="1010" y1="28"/>
            <line y2="649" fill="none" x1="1010" clip-path="url(#clipPath2)" x2="1010" y1="651"/>
            <line y2="30" fill="none" x1="1036" clip-path="url(#clipPath2)" x2="1036" y1="26"/>
            <line y2="649" fill="none" x1="1036" clip-path="url(#clipPath2)" x2="1036" y1="653"/>
            <text x="1033" xml:space="preserve" font-size="8px" y="23" clip-path="url(#clipPath2)" stroke="none">36</text>
            <text x="1033" xml:space="preserve" font-size="8px" y="662" clip-path="url(#clipPath2)" stroke="none">36</text>
            <line y2="30" fill="none" x1="1061" clip-path="url(#clipPath2)" x2="1061" y1="28"/>
            <line y2="649" fill="none" x1="1061" clip-path="url(#clipPath2)" x2="1061" y1="651"/>
            <line y2="30" fill="none" x1="1087" clip-path="url(#clipPath2)" x2="1087" y1="26"/>
            <line y2="649" fill="none" x1="1087" clip-path="url(#clipPath2)" x2="1087" y1="653"/>
            <text x="1084" xml:space="preserve" font-size="8px" y="23" clip-path="url(#clipPath2)" stroke="none">38</text>
            <text x="1084" xml:space="preserve" font-size="8px" y="662" clip-path="url(#clipPath2)" stroke="none">38</text>
            <line y2="30" fill="none" x1="1112" clip-path="url(#clipPath2)" x2="1112" y1="28"/>
            <line y2="649" fill="none" x1="1112" clip-path="url(#clipPath2)" x2="1112" y1="651"/>
            <line y2="647" fill="none" x1="25" clip-path="url(#clipPath2)" x2="25" y1="32"/>
            <line y2="647" fill="none" x1="1116" clip-path="url(#clipPath2)" x2="1116" y1="32"/>
            <line y2="647" fill="none" x1="21" clip-path="url(#clipPath2)" x2="25" y1="647"/>
            <line y2="647" fill="none" x1="1120" clip-path="url(#clipPath2)" x2="1116" y1="647"/>
            <text x="15" xml:space="preserve" font-size="8px" y="650" clip-path="url(#clipPath2)" stroke="none">0</text>
            <text x="1123" xml:space="preserve" font-size="8px" y="650" clip-path="url(#clipPath2)" stroke="none">0</text>
            <line y2="626" fill="none" x1="23" clip-path="url(#clipPath2)" x2="25" y1="626"/>
            <line y2="626" fill="none" x1="1118" clip-path="url(#clipPath2)" x2="1116" y1="626"/>
            <line y2="605" fill="none" x1="23" clip-path="url(#clipPath2)" x2="25" y1="605"/>
            <line y2="605" fill="none" x1="1118" clip-path="url(#clipPath2)" x2="1116" y1="605"/>
            <line y2="584" fill="none" x1="23" clip-path="url(#clipPath2)" x2="25" y1="584"/>
            <line y2="584" fill="none" x1="1118" clip-path="url(#clipPath2)" x2="1116" y1="584"/>
            <line y2="563" fill="none" x1="23" clip-path="url(#clipPath2)" x2="25" y1="563"/>
            <line y2="563" fill="none" x1="1118" clip-path="url(#clipPath2)" x2="1116" y1="563"/>
            <line y2="542" fill="none" x1="21" clip-path="url(#clipPath2)" x2="25" y1="542"/>
            <line y2="542" fill="none" x1="1120" clip-path="url(#clipPath2)" x2="1116" y1="542"/>
            <text x="11" xml:space="preserve" font-size="8px" y="545" clip-path="url(#clipPath2)" stroke="none">50</text>
            <text x="1123" xml:space="preserve" font-size="8px" y="545" clip-path="url(#clipPath2)" stroke="none">50</text>
            <line y2="521" fill="none" x1="23" clip-path="url(#clipPath2)" x2="25" y1="521"/>
            <line y2="521" fill="none" x1="1118" clip-path="url(#clipPath2)" x2="1116" y1="521"/>
            <line y2="500" fill="none" x1="23" clip-path="url(#clipPath2)" x2="25" y1="500"/>
            <line y2="500" fill="none" x1="1118" clip-path="url(#clipPath2)" x2="1116" y1="500"/>
            <line y2="479" fill="none" x1="23" clip-path="url(#clipPath2)" x2="25" y1="479"/>
            <line y2="479" fill="none" x1="1118" clip-path="url(#clipPath2)" x2="1116" y1="479"/>
            <line y2="458" fill="none" x1="23" clip-path="url(#clipPath2)" x2="25" y1="458"/>
            <line y2="458" fill="none" x1="1118" clip-path="url(#clipPath2)" x2="1116" y1="458"/>
            <line y2="437" fill="none" x1="21" clip-path="url(#clipPath2)" x2="25" y1="437"/>
            <line y2="437" fill="none" x1="1120" clip-path="url(#clipPath2)" x2="1116" y1="437"/>
            <text x="6" xml:space="preserve" font-size="8px" y="440" clip-path="url(#clipPath2)" stroke="none">100</text>
            <text x="1123" xml:space="preserve" font-size="8px" y="440" clip-path="url(#clipPath2)" stroke="none">100</text>
            <line y2="416" fill="none" x1="23" clip-path="url(#clipPath2)" x2="25" y1="416"/>
            <line y2="416" fill="none" x1="1118" clip-path="url(#clipPath2)" x2="1116" y1="416"/>
            <line y2="395" fill="none" x1="23" clip-path="url(#clipPath2)" x2="25" y1="395"/>
            <line y2="395" fill="none" x1="1118" clip-path="url(#clipPath2)" x2="1116" y1="395"/>
            <line y2="374" fill="none" x1="23" clip-path="url(#clipPath2)" x2="25" y1="374"/>
            <line y2="374" fill="none" x1="1118" clip-path="url(#clipPath2)" x2="1116" y1="374"/>
            <line y2="353" fill="none" x1="23" clip-path="url(#clipPath2)" x2="25" y1="353"/>
            <line y2="353" fill="none" x1="1118" clip-path="url(#clipPath2)" x2="1116" y1="353"/>
            <line y2="332" fill="none" x1="21" clip-path="url(#clipPath2)" x2="25" y1="332"/>
            <line y2="332" fill="none" x1="1120" clip-path="url(#clipPath2)" x2="1116" y1="332"/>
            <text x="6" xml:space="preserve" font-size="8px" y="335" clip-path="url(#clipPath2)" stroke="none">150</text>
            <text x="1123" xml:space="preserve" font-size="8px" y="335" clip-path="url(#clipPath2)" stroke="none">150</text>
            <line y2="311" fill="none" x1="23" clip-path="url(#clipPath2)" x2="25" y1="311"/>
            <line y2="311" fill="none" x1="1118" clip-path="url(#clipPath2)" x2="1116" y1="311"/>
            <line y2="290" fill="none" x1="23" clip-path="url(#clipPath2)" x2="25" y1="290"/>
            <line y2="290" fill="none" x1="1118" clip-path="url(#clipPath2)" x2="1116" y1="290"/>
            <line y2="269" fill="none" x1="23" clip-path="url(#clipPath2)" x2="25" y1="269"/>
            <line y2="269" fill="none" x1="1118" clip-path="url(#clipPath2)" x2="1116" y1="269"/>
            <line y2="248" fill="none" x1="23" clip-path="url(#clipPath2)" x2="25" y1="248"/>
            <line y2="248" fill="none" x1="1118" clip-path="url(#clipPath2)" x2="1116" y1="248"/>
            <line y2="227" fill="none" x1="21" clip-path="url(#clipPath2)" x2="25" y1="227"/>
            <line y2="227" fill="none" x1="1120" clip-path="url(#clipPath2)" x2="1116" y1="227"/>
            <text x="6" xml:space="preserve" font-size="8px" y="230" clip-path="url(#clipPath2)" stroke="none">200</text>
            <text x="1123" xml:space="preserve" font-size="8px" y="230" clip-path="url(#clipPath2)" stroke="none">200</text>
            <line y2="206" fill="none" x1="23" clip-path="url(#clipPath2)" x2="25" y1="206"/>
            <line y2="206" fill="none" x1="1118" clip-path="url(#clipPath2)" x2="1116" y1="206"/>
            <line y2="185" fill="none" x1="23" clip-path="url(#clipPath2)" x2="25" y1="185"/>
            <line y2="185" fill="none" x1="1118" clip-path="url(#clipPath2)" x2="1116" y1="185"/>
            <line y2="164" fill="none" x1="23" clip-path="url(#clipPath2)" x2="25" y1="164"/>
            <line y2="164" fill="none" x1="1118" clip-path="url(#clipPath2)" x2="1116" y1="164"/>
            <line y2="143" fill="none" x1="23" clip-path="url(#clipPath2)" x2="25" y1="143"/>
            <line y2="143" fill="none" x1="1118" clip-path="url(#clipPath2)" x2="1116" y1="143"/>
            <line y2="122" fill="none" x1="21" clip-path="url(#clipPath2)" x2="25" y1="122"/>
            <line y2="122" fill="none" x1="1120" clip-path="url(#clipPath2)" x2="1116" y1="122"/>
            <text x="6" xml:space="preserve" font-size="8px" y="125" clip-path="url(#clipPath2)" stroke="none">250</text>
            <text x="1123" xml:space="preserve" font-size="8px" y="125" clip-path="url(#clipPath2)" stroke="none">250</text>
            <line y2="101" fill="none" x1="23" clip-path="url(#clipPath2)" x2="25" y1="101"/>
            <line y2="101" fill="none" x1="1118" clip-path="url(#clipPath2)" x2="1116" y1="101"/>
            <line y2="80" fill="none" x1="23" clip-path="url(#clipPath2)" x2="25" y1="80"/>
            <line y2="80" fill="none" x1="1118" clip-path="url(#clipPath2)" x2="1116" y1="80"/>
            <line y2="59" fill="none" x1="23" clip-path="url(#clipPath2)" x2="25" y1="59"/>
            <line y2="59" fill="none" x1="1118" clip-path="url(#clipPath2)" x2="1116" y1="59"/>
            <line y2="38" fill="none" x1="23" clip-path="url(#clipPath2)" x2="25" y1="38"/>
            <line y2="38" fill="none" x1="1118" clip-path="url(#clipPath2)" x2="1116" y1="38"/>
        </g>
    </g>
</svg>
