<?xml version="1.0" encoding="UTF-8"?><svg xmlns="http://www.w3.org/2000/svg" xmlns:xlink="http://www.w3.org/1999/xlink" stroke-dasharray="none" shape-rendering="auto" font-family="'Dialog'" width="1141" text-rendering="auto" fill-opacity="1" contentScriptType="text/ecmascript" color-interpolation="auto" color-rendering="auto" preserveAspectRatio="xMidYMid meet" font-size="12px" fill="black" stroke="black" image-rendering="auto" stroke-miterlimit="10" zoomAndPan="magnify" version="1.0" stroke-linecap="square" stroke-linejoin="miter" contentStyleType="text/css" font-style="normal" height="667" stroke-width="1" stroke-dashoffset="0" font-weight="normal" stroke-opacity="1">
    <!--Generated by the Batik Graphics2D SVG Generator-->
    <defs id="genericDefs"/>
    <g>
        <defs id="defs1">
            <clipPath clipPathUnits="userSpaceOnUse" id="clipPath1">
                <path d="M21 31 L1120 31 L1120 648 L21 648 L21 31 Z"/>
            </clipPath>
            <clipPath clipPathUnits="userSpaceOnUse" id="clipPath2">
                <path d="M-1 -1 L1142 -1 L1142 668 L-1 668 L-1 -1 Z"/>
            </clipPath>
            <clipPath clipPathUnits="userSpaceOnUse" id="clipPath3">
                <path d="M913 36 L1116 36 L1116 59 L913 59 L913 36 Z"/>
            </clipPath>
        </defs>
        <g font-size="13px" fill="white" text-rendering="optimizeLegibility" font-family="'.AppleSystemUIFont'" stroke-linejoin="round" stroke="white" stroke-width="0" stroke-miterlimit="0">
            <rect x="22" width="1097" height="615" y="32" clip-path="url(#clipPath1)" stroke="none"/>
        </g>
        <g stroke-linecap="butt" font-size="13px" fill="rgb(204,204,204)" text-rendering="optimizeLegibility" font-family="'.AppleSystemUIFont'" stroke-dasharray="3,3" stroke="rgb(204,204,204)">
            <line y2="647" fill="none" x1="22" clip-path="url(#clipPath1)" x2="1119" y1="647"/>
            <line y2="567" fill="none" x1="22" clip-path="url(#clipPath1)" x2="1119" y1="567"/>
            <line y2="487" fill="none" x1="22" clip-path="url(#clipPath1)" x2="1119" y1="487"/>
            <line y2="408" fill="none" x1="22" clip-path="url(#clipPath1)" x2="1119" y1="408"/>
            <line y2="328" fill="none" x1="22" clip-path="url(#clipPath1)" x2="1119" y1="328"/>
            <line y2="249" fill="none" x1="22" clip-path="url(#clipPath1)" x2="1119" y1="249"/>
            <line y2="169" fill="none" x1="22" clip-path="url(#clipPath1)" x2="1119" y1="169"/>
            <line y2="90" fill="none" x1="22" clip-path="url(#clipPath1)" x2="1119" y1="90"/>
            <rect x="113" y="185" clip-path="url(#clipPath1)" fill="rgb(31,119,180)" width="17" height="462" stroke="none"/>
            <rect x="113" y="185" clip-path="url(#clipPath1)" fill="none" width="17" stroke-dasharray="none" height="462" stroke="black"/>
            <rect x="130" y="265" clip-path="url(#clipPath1)" fill="rgb(31,119,180)" width="17" stroke-dasharray="none" height="382" stroke="none"/>
            <rect x="130" y="265" clip-path="url(#clipPath1)" fill="none" width="17" stroke-dasharray="none" height="382" stroke="black"/>
            <rect x="147" y="328" clip-path="url(#clipPath1)" fill="rgb(31,119,180)" width="17" stroke-dasharray="none" height="319" stroke="none"/>
            <rect x="147" y="328" clip-path="url(#clipPath1)" fill="none" width="17" stroke-dasharray="none" height="319" stroke="black"/>
            <rect x="164" y="233" clip-path="url(#clipPath1)" fill="rgb(31,119,180)" width="17" stroke-dasharray="none" height="414" stroke="none"/>
            <rect x="164" y="233" clip-path="url(#clipPath1)" fill="none" width="17" stroke-dasharray="none" height="414" stroke="black"/>
            <rect x="181" y="201" clip-path="url(#clipPath1)" fill="rgb(31,119,180)" width="17" stroke-dasharray="none" height="446" stroke="none"/>
            <rect x="181" y="201" clip-path="url(#clipPath1)" fill="none" width="17" stroke-dasharray="none" height="446" stroke="black"/>
            <rect x="198" y="201" clip-path="url(#clipPath1)" fill="rgb(31,119,180)" width="16" stroke-dasharray="none" height="446" stroke="none"/>
            <rect x="198" y="201" clip-path="url(#clipPath1)" fill="none" width="16" stroke-dasharray="none" height="446" stroke="black"/>
            <rect x="214" y="201" clip-path="url(#clipPath1)" fill="rgb(31,119,180)" width="17" stroke-dasharray="none" height="446" stroke="none"/>
            <rect x="214" y="201" clip-path="url(#clipPath1)" fill="none" width="17" stroke-dasharray="none" height="446" stroke="black"/>
            <rect x="231" y="265" clip-path="url(#clipPath1)" fill="rgb(31,119,180)" width="17" stroke-dasharray="none" height="382" stroke="none"/>
            <rect x="231" y="265" clip-path="url(#clipPath1)" fill="none" width="17" stroke-dasharray="none" height="382" stroke="black"/>
            <rect x="248" y="312" clip-path="url(#clipPath1)" fill="rgb(31,119,180)" width="17" stroke-dasharray="none" height="335" stroke="none"/>
            <rect x="248" y="312" clip-path="url(#clipPath1)" fill="none" width="17" stroke-dasharray="none" height="335" stroke="black"/>
            <rect x="265" y="249" clip-path="url(#clipPath1)" fill="rgb(31,119,180)" width="17" stroke-dasharray="none" height="398" stroke="none"/>
            <rect x="265" y="249" clip-path="url(#clipPath1)" fill="none" width="17" stroke-dasharray="none" height="398" stroke="black"/>
            <rect x="282" y="201" clip-path="url(#clipPath1)" fill="rgb(31,119,180)" width="17" stroke-dasharray="none" height="446" stroke="none"/>
            <rect x="282" y="201" clip-path="url(#clipPath1)" fill="none" width="17" stroke-dasharray="none" height="446" stroke="black"/>
            <rect x="299" y="201" clip-path="url(#clipPath1)" fill="rgb(31,119,180)" width="17" stroke-dasharray="none" height="446" stroke="none"/>
            <rect x="299" y="201" clip-path="url(#clipPath1)" fill="none" width="17" stroke-dasharray="none" height="446" stroke="black"/>
            <rect x="316" y="201" clip-path="url(#clipPath1)" fill="rgb(31,119,180)" width="17" stroke-dasharray="none" height="446" stroke="none"/>
            <rect x="316" y="201" clip-path="url(#clipPath1)" fill="none" width="17" stroke-dasharray="none" height="446" stroke="black"/>
            <rect x="333" y="265" clip-path="url(#clipPath1)" fill="rgb(31,119,180)" width="17" stroke-dasharray="none" height="382" stroke="none"/>
            <rect x="333" y="265" clip-path="url(#clipPath1)" fill="none" width="17" stroke-dasharray="none" height="382" stroke="black"/>
            <rect x="350" y="312" clip-path="url(#clipPath1)" fill="rgb(31,119,180)" width="17" stroke-dasharray="none" height="335" stroke="none"/>
            <rect x="350" y="312" clip-path="url(#clipPath1)" fill="none" width="17" stroke-dasharray="none" height="335" stroke="black"/>
            <rect x="367" y="249" clip-path="url(#clipPath1)" fill="rgb(31,119,180)" width="17" stroke-dasharray="none" height="398" stroke="none"/>
            <rect x="367" y="249" clip-path="url(#clipPath1)" fill="none" width="17" stroke-dasharray="none" height="398" stroke="black"/>
            <rect x="384" y="201" clip-path="url(#clipPath1)" fill="rgb(31,119,180)" width="17" stroke-dasharray="none" height="446" stroke="none"/>
            <rect x="384" y="201" clip-path="url(#clipPath1)" fill="none" width="17" stroke-dasharray="none" height="446" stroke="black"/>
            <rect x="401" y="201" clip-path="url(#clipPath1)" fill="rgb(31,119,180)" width="17" stroke-dasharray="none" height="446" stroke="none"/>
            <rect x="401" y="201" clip-path="url(#clipPath1)" fill="none" width="17" stroke-dasharray="none" height="446" stroke="black"/>
            <rect x="418" y="201" clip-path="url(#clipPath1)" fill="rgb(31,119,180)" width="17" stroke-dasharray="none" height="446" stroke="none"/>
            <rect x="418" y="201" clip-path="url(#clipPath1)" fill="none" width="17" stroke-dasharray="none" height="446" stroke="black"/>
            <rect x="435" y="249" clip-path="url(#clipPath1)" fill="rgb(31,119,180)" width="16" stroke-dasharray="none" height="398" stroke="none"/>
            <rect x="435" y="249" clip-path="url(#clipPath1)" fill="none" width="16" stroke-dasharray="none" height="398" stroke="black"/>
            <rect x="451" y="328" clip-path="url(#clipPath1)" fill="rgb(31,119,180)" width="17" stroke-dasharray="none" height="319" stroke="none"/>
            <rect x="451" y="328" clip-path="url(#clipPath1)" fill="none" width="17" stroke-dasharray="none" height="319" stroke="black"/>
            <rect x="468" y="249" clip-path="url(#clipPath1)" fill="rgb(31,119,180)" width="17" stroke-dasharray="none" height="398" stroke="none"/>
            <rect x="468" y="249" clip-path="url(#clipPath1)" fill="none" width="17" stroke-dasharray="none" height="398" stroke="black"/>
            <rect x="485" y="201" clip-path="url(#clipPath1)" fill="rgb(31,119,180)" width="17" stroke-dasharray="none" height="446" stroke="none"/>
            <rect x="485" y="201" clip-path="url(#clipPath1)" fill="none" width="17" stroke-dasharray="none" height="446" stroke="black"/>
            <rect x="502" y="201" clip-path="url(#clipPath1)" fill="rgb(31,119,180)" width="17" stroke-dasharray="none" height="446" stroke="none"/>
            <rect x="502" y="201" clip-path="url(#clipPath1)" fill="none" width="17" stroke-dasharray="none" height="446" stroke="black"/>
            <rect x="519" y="201" clip-path="url(#clipPath1)" fill="rgb(31,119,180)" width="17" stroke-dasharray="none" height="446" stroke="none"/>
            <rect x="519" y="201" clip-path="url(#clipPath1)" fill="none" width="17" stroke-dasharray="none" height="446" stroke="black"/>
            <rect x="536" y="249" clip-path="url(#clipPath1)" fill="rgb(31,119,180)" width="17" stroke-dasharray="none" height="398" stroke="none"/>
            <rect x="536" y="249" clip-path="url(#clipPath1)" fill="none" width="17" stroke-dasharray="none" height="398" stroke="black"/>
            <rect x="553" y="312" clip-path="url(#clipPath1)" fill="rgb(31,119,180)" width="17" stroke-dasharray="none" height="335" stroke="none"/>
            <rect x="553" y="312" clip-path="url(#clipPath1)" fill="none" width="17" stroke-dasharray="none" height="335" stroke="black"/>
            <rect x="570" y="265" clip-path="url(#clipPath1)" fill="rgb(31,119,180)" width="17" stroke-dasharray="none" height="382" stroke="none"/>
            <rect x="570" y="265" clip-path="url(#clipPath1)" fill="none" width="17" stroke-dasharray="none" height="382" stroke="black"/>
            <rect x="587" y="201" clip-path="url(#clipPath1)" fill="rgb(31,119,180)" width="17" stroke-dasharray="none" height="446" stroke="none"/>
            <rect x="587" y="201" clip-path="url(#clipPath1)" fill="none" width="17" stroke-dasharray="none" height="446" stroke="black"/>
            <rect x="604" y="201" clip-path="url(#clipPath1)" fill="rgb(31,119,180)" width="17" stroke-dasharray="none" height="446" stroke="none"/>
            <rect x="604" y="201" clip-path="url(#clipPath1)" fill="none" width="17" stroke-dasharray="none" height="446" stroke="black"/>
            <rect x="621" y="201" clip-path="url(#clipPath1)" fill="rgb(31,119,180)" width="17" stroke-dasharray="none" height="446" stroke="none"/>
            <rect x="621" y="201" clip-path="url(#clipPath1)" fill="none" width="17" stroke-dasharray="none" height="446" stroke="black"/>
            <rect x="638" y="233" clip-path="url(#clipPath1)" fill="rgb(31,119,180)" width="17" stroke-dasharray="none" height="414" stroke="none"/>
            <rect x="638" y="233" clip-path="url(#clipPath1)" fill="none" width="17" stroke-dasharray="none" height="414" stroke="black"/>
            <rect x="655" y="328" clip-path="url(#clipPath1)" fill="rgb(31,119,180)" width="17" stroke-dasharray="none" height="319" stroke="none"/>
            <rect x="655" y="328" clip-path="url(#clipPath1)" fill="none" width="17" stroke-dasharray="none" height="319" stroke="black"/>
            <rect x="672" y="265" clip-path="url(#clipPath1)" fill="rgb(31,119,180)" width="17" stroke-dasharray="none" height="382" stroke="none"/>
            <rect x="672" y="265" clip-path="url(#clipPath1)" fill="none" width="17" stroke-dasharray="none" height="382" stroke="black"/>
            <rect x="689" y="201" clip-path="url(#clipPath1)" fill="rgb(31,119,180)" width="16" stroke-dasharray="none" height="446" stroke="none"/>
            <rect x="689" y="201" clip-path="url(#clipPath1)" fill="none" width="16" stroke-dasharray="none" height="446" stroke="black"/>
            <rect x="705" y="201" clip-path="url(#clipPath1)" fill="rgb(31,119,180)" width="17" stroke-dasharray="none" height="446" stroke="none"/>
            <rect x="705" y="201" clip-path="url(#clipPath1)" fill="none" width="17" stroke-dasharray="none" height="446" stroke="black"/>
            <rect x="722" y="201" clip-path="url(#clipPath1)" fill="rgb(31,119,180)" width="17" stroke-dasharray="none" height="446" stroke="none"/>
            <rect x="722" y="201" clip-path="url(#clipPath1)" fill="none" width="17" stroke-dasharray="none" height="446" stroke="black"/>
            <rect x="739" y="233" clip-path="url(#clipPath1)" fill="rgb(31,119,180)" width="17" stroke-dasharray="none" height="414" stroke="none"/>
            <rect x="739" y="233" clip-path="url(#clipPath1)" fill="none" width="17" stroke-dasharray="none" height="414" stroke="black"/>
            <rect x="756" y="312" clip-path="url(#clipPath1)" fill="rgb(31,119,180)" width="17" stroke-dasharray="none" height="335" stroke="none"/>
            <rect x="756" y="312" clip-path="url(#clipPath1)" fill="none" width="17" stroke-dasharray="none" height="335" stroke="black"/>
            <rect x="773" y="281" clip-path="url(#clipPath1)" fill="rgb(31,119,180)" width="17" stroke-dasharray="none" height="366" stroke="none"/>
            <rect x="773" y="281" clip-path="url(#clipPath1)" fill="none" width="17" stroke-dasharray="none" height="366" stroke="black"/>
            <rect x="790" y="201" clip-path="url(#clipPath1)" fill="rgb(31,119,180)" width="17" stroke-dasharray="none" height="446" stroke="none"/>
            <rect x="790" y="201" clip-path="url(#clipPath1)" fill="none" width="17" stroke-dasharray="none" height="446" stroke="black"/>
            <rect x="807" y="201" clip-path="url(#clipPath1)" fill="rgb(31,119,180)" width="17" stroke-dasharray="none" height="446" stroke="none"/>
            <rect x="807" y="201" clip-path="url(#clipPath1)" fill="none" width="17" stroke-dasharray="none" height="446" stroke="black"/>
            <rect x="824" y="201" clip-path="url(#clipPath1)" fill="rgb(31,119,180)" width="17" stroke-dasharray="none" height="446" stroke="none"/>
            <rect x="824" y="201" clip-path="url(#clipPath1)" fill="none" width="17" stroke-dasharray="none" height="446" stroke="black"/>
            <rect x="841" y="233" clip-path="url(#clipPath1)" fill="rgb(31,119,180)" width="17" stroke-dasharray="none" height="414" stroke="none"/>
            <rect x="841" y="233" clip-path="url(#clipPath1)" fill="none" width="17" stroke-dasharray="none" height="414" stroke="black"/>
            <rect x="858" y="312" clip-path="url(#clipPath1)" fill="rgb(31,119,180)" width="17" stroke-dasharray="none" height="335" stroke="none"/>
            <rect x="858" y="312" clip-path="url(#clipPath1)" fill="none" width="17" stroke-dasharray="none" height="335" stroke="black"/>
            <rect x="875" y="281" clip-path="url(#clipPath1)" fill="rgb(31,119,180)" width="17" stroke-dasharray="none" height="366" stroke="none"/>
            <rect x="875" y="281" clip-path="url(#clipPath1)" fill="none" width="17" stroke-dasharray="none" height="366" stroke="black"/>
            <rect x="892" y="201" clip-path="url(#clipPath1)" fill="rgb(31,119,180)" width="17" stroke-dasharray="none" height="446" stroke="none"/>
            <rect x="892" y="201" clip-path="url(#clipPath1)" fill="none" width="17" stroke-dasharray="none" height="446" stroke="black"/>
            <rect x="909" y="201" clip-path="url(#clipPath1)" fill="rgb(31,119,180)" width="17" stroke-dasharray="none" height="446" stroke="none"/>
            <rect x="909" y="201" clip-path="url(#clipPath1)" fill="none" width="17" stroke-dasharray="none" height="446" stroke="black"/>
            <rect x="926" y="201" clip-path="url(#clipPath1)" fill="rgb(31,119,180)" width="16" stroke-dasharray="none" height="446" stroke="none"/>
            <rect x="926" y="201" clip-path="url(#clipPath1)" fill="none" width="16" stroke-dasharray="none" height="446" stroke="black"/>
            <rect x="942" y="217" clip-path="url(#clipPath1)" fill="rgb(31,119,180)" width="17" stroke-dasharray="none" height="430" stroke="none"/>
            <rect x="942" y="217" clip-path="url(#clipPath1)" fill="none" width="17" stroke-dasharray="none" height="430" stroke="black"/>
            <rect x="959" y="312" clip-path="url(#clipPath1)" fill="rgb(31,119,180)" width="17" stroke-dasharray="none" height="335" stroke="none"/>
            <rect x="959" y="312" clip-path="url(#clipPath1)" fill="none" width="17" stroke-dasharray="none" height="335" stroke="black"/>
            <rect x="976" y="297" clip-path="url(#clipPath1)" fill="rgb(31,119,180)" width="17" stroke-dasharray="none" height="350" stroke="none"/>
            <rect x="976" y="297" clip-path="url(#clipPath1)" fill="none" width="17" stroke-dasharray="none" height="350" stroke="black"/>
            <rect x="993" y="201" clip-path="url(#clipPath1)" fill="rgb(31,119,180)" width="17" stroke-dasharray="none" height="446" stroke="none"/>
            <rect x="993" y="201" clip-path="url(#clipPath1)" fill="none" width="17" stroke-dasharray="none" height="446" stroke="black"/>
            <rect x="1010" y="472" clip-path="url(#clipPath1)" fill="rgb(31,119,180)" width="17" stroke-dasharray="none" height="175" stroke="none"/>
            <rect x="1010" y="472" clip-path="url(#clipPath1)" fill="none" width="17" stroke-dasharray="none" height="175" stroke="black"/>
            <rect x="22" y="32" clip-path="url(#clipPath2)" fill="none" width="1097" stroke-dasharray="none" height="615" stroke="black"/>
        </g>
        <g text-rendering="optimizeLegibility" font-size="10px" font-family="'Arial'" stroke-linecap="butt">
            <text x="462" xml:space="preserve" y="10" clip-path="url(#clipPath2)" stroke="none">end-to-end delay in RoutedNetwork.host1.app[0]</text>
            <rect x="914" y="37" clip-path="url(#clipPath3)" fill="white" width="200" opacity="0.753" height="20" stroke="none"/>
            <polygon fill="rgb(31,119,180)" clip-path="url(#clipPath3)" points=" 923 43 923 51 931 51 931 43" stroke="none"/>
            <text x="936" xml:space="preserve" font-size="8px" y="50" clip-path="url(#clipPath3)" stroke="none">end-to-end delay in RoutedNetwork.host1.app[0]</text>
            <line y2="30" fill="none" x1="22" clip-path="url(#clipPath2)" x2="1119" y1="30"/>
            <line y2="649" fill="none" x1="22" clip-path="url(#clipPath2)" x2="1119" y1="649"/>
            <line y2="30" fill="none" x1="28" clip-path="url(#clipPath2)" x2="28" y1="26"/>
            <line y2="649" fill="none" x1="28" clip-path="url(#clipPath2)" x2="28" y1="653"/>
            <text x="22" xml:space="preserve" font-size="8px" y="23" clip-path="url(#clipPath2)" stroke="none">-0.5</text>
            <text x="22" xml:space="preserve" font-size="8px" y="662" clip-path="url(#clipPath2)" stroke="none">-0.5</text>
            <line y2="30" fill="none" x1="45" clip-path="url(#clipPath2)" x2="45" y1="28"/>
            <line y2="649" fill="none" x1="45" clip-path="url(#clipPath2)" x2="45" y1="651"/>
            <line y2="30" fill="none" x1="62" clip-path="url(#clipPath2)" x2="62" y1="28"/>
            <line y2="649" fill="none" x1="62" clip-path="url(#clipPath2)" x2="62" y1="651"/>
            <line y2="30" fill="none" x1="79" clip-path="url(#clipPath2)" x2="79" y1="28"/>
            <line y2="649" fill="none" x1="79" clip-path="url(#clipPath2)" x2="79" y1="651"/>
            <line y2="30" fill="none" x1="96" clip-path="url(#clipPath2)" x2="96" y1="28"/>
            <line y2="649" fill="none" x1="96" clip-path="url(#clipPath2)" x2="96" y1="651"/>
            <line y2="30" fill="none" x1="113" clip-path="url(#clipPath2)" x2="113" y1="26"/>
            <line y2="649" fill="none" x1="113" clip-path="url(#clipPath2)" x2="113" y1="653"/>
            <text x="112" xml:space="preserve" font-size="8px" y="23" clip-path="url(#clipPath2)" stroke="none">0</text>
            <text x="112" xml:space="preserve" font-size="8px" y="662" clip-path="url(#clipPath2)" stroke="none">0</text>
            <line y2="30" fill="none" x1="130" clip-path="url(#clipPath2)" x2="130" y1="28"/>
            <line y2="649" fill="none" x1="130" clip-path="url(#clipPath2)" x2="130" y1="651"/>
            <line y2="30" fill="none" x1="147" clip-path="url(#clipPath2)" x2="147" y1="28"/>
            <line y2="649" fill="none" x1="147" clip-path="url(#clipPath2)" x2="147" y1="651"/>
            <line y2="30" fill="none" x1="164" clip-path="url(#clipPath2)" x2="164" y1="28"/>
            <line y2="649" fill="none" x1="164" clip-path="url(#clipPath2)" x2="164" y1="651"/>
            <line y2="30" fill="none" x1="181" clip-path="url(#clipPath2)" x2="181" y1="28"/>
            <line y2="649" fill="none" x1="181" clip-path="url(#clipPath2)" x2="181" y1="651"/>
            <line y2="30" fill="none" x1="198" clip-path="url(#clipPath2)" x2="198" y1="26"/>
            <line y2="649" fill="none" x1="198" clip-path="url(#clipPath2)" x2="198" y1="653"/>
            <text x="193" xml:space="preserve" font-size="8px" y="23" clip-path="url(#clipPath2)" stroke="none">0.5</text>
            <text x="193" xml:space="preserve" font-size="8px" y="662" clip-path="url(#clipPath2)" stroke="none">0.5</text>
            <line y2="30" fill="none" x1="214" clip-path="url(#clipPath2)" x2="214" y1="28"/>
            <line y2="649" fill="none" x1="214" clip-path="url(#clipPath2)" x2="214" y1="651"/>
            <line y2="30" fill="none" x1="231" clip-path="url(#clipPath2)" x2="231" y1="28"/>
            <line y2="649" fill="none" x1="231" clip-path="url(#clipPath2)" x2="231" y1="651"/>
            <line y2="30" fill="none" x1="248" clip-path="url(#clipPath2)" x2="248" y1="28"/>
            <line y2="649" fill="none" x1="248" clip-path="url(#clipPath2)" x2="248" y1="651"/>
            <line y2="30" fill="none" x1="265" clip-path="url(#clipPath2)" x2="265" y1="28"/>
            <line y2="649" fill="none" x1="265" clip-path="url(#clipPath2)" x2="265" y1="651"/>
            <line y2="30" fill="none" x1="282" clip-path="url(#clipPath2)" x2="282" y1="26"/>
            <line y2="649" fill="none" x1="282" clip-path="url(#clipPath2)" x2="282" y1="653"/>
            <text x="281" xml:space="preserve" font-size="8px" y="23" clip-path="url(#clipPath2)" stroke="none">1</text>
            <text x="281" xml:space="preserve" font-size="8px" y="662" clip-path="url(#clipPath2)" stroke="none">1</text>
            <line y2="30" fill="none" x1="299" clip-path="url(#clipPath2)" x2="299" y1="28"/>
            <line y2="649" fill="none" x1="299" clip-path="url(#clipPath2)" x2="299" y1="651"/>
            <line y2="30" fill="none" x1="316" clip-path="url(#clipPath2)" x2="316" y1="28"/>
            <line y2="649" fill="none" x1="316" clip-path="url(#clipPath2)" x2="316" y1="651"/>
            <line y2="30" fill="none" x1="333" clip-path="url(#clipPath2)" x2="333" y1="28"/>
            <line y2="649" fill="none" x1="333" clip-path="url(#clipPath2)" x2="333" y1="651"/>
            <line y2="30" fill="none" x1="350" clip-path="url(#clipPath2)" x2="350" y1="28"/>
            <line y2="649" fill="none" x1="350" clip-path="url(#clipPath2)" x2="350" y1="651"/>
            <line y2="30" fill="none" x1="367" clip-path="url(#clipPath2)" x2="367" y1="26"/>
            <line y2="649" fill="none" x1="367" clip-path="url(#clipPath2)" x2="367" y1="653"/>
            <text x="362" xml:space="preserve" font-size="8px" y="23" clip-path="url(#clipPath2)" stroke="none">1.5</text>
            <text x="362" xml:space="preserve" font-size="8px" y="662" clip-path="url(#clipPath2)" stroke="none">1.5</text>
            <line y2="30" fill="none" x1="384" clip-path="url(#clipPath2)" x2="384" y1="28"/>
            <line y2="649" fill="none" x1="384" clip-path="url(#clipPath2)" x2="384" y1="651"/>
            <line y2="30" fill="none" x1="401" clip-path="url(#clipPath2)" x2="401" y1="28"/>
            <line y2="649" fill="none" x1="401" clip-path="url(#clipPath2)" x2="401" y1="651"/>
            <line y2="30" fill="none" x1="418" clip-path="url(#clipPath2)" x2="418" y1="28"/>
            <line y2="649" fill="none" x1="418" clip-path="url(#clipPath2)" x2="418" y1="651"/>
            <line y2="30" fill="none" x1="435" clip-path="url(#clipPath2)" x2="435" y1="28"/>
            <line y2="649" fill="none" x1="435" clip-path="url(#clipPath2)" x2="435" y1="651"/>
            <line y2="30" fill="none" x1="451" clip-path="url(#clipPath2)" x2="451" y1="26"/>
            <line y2="649" fill="none" x1="451" clip-path="url(#clipPath2)" x2="451" y1="653"/>
            <text x="450" xml:space="preserve" font-size="8px" y="23" clip-path="url(#clipPath2)" stroke="none">2</text>
            <text x="450" xml:space="preserve" font-size="8px" y="662" clip-path="url(#clipPath2)" stroke="none">2</text>
            <line y2="30" fill="none" x1="468" clip-path="url(#clipPath2)" x2="468" y1="28"/>
            <line y2="649" fill="none" x1="468" clip-path="url(#clipPath2)" x2="468" y1="651"/>
            <line y2="30" fill="none" x1="485" clip-path="url(#clipPath2)" x2="485" y1="28"/>
            <line y2="649" fill="none" x1="485" clip-path="url(#clipPath2)" x2="485" y1="651"/>
            <line y2="30" fill="none" x1="502" clip-path="url(#clipPath2)" x2="502" y1="28"/>
            <line y2="649" fill="none" x1="502" clip-path="url(#clipPath2)" x2="502" y1="651"/>
            <line y2="30" fill="none" x1="519" clip-path="url(#clipPath2)" x2="519" y1="28"/>
            <line y2="649" fill="none" x1="519" clip-path="url(#clipPath2)" x2="519" y1="651"/>
            <line y2="30" fill="none" x1="536" clip-path="url(#clipPath2)" x2="536" y1="26"/>
            <line y2="649" fill="none" x1="536" clip-path="url(#clipPath2)" x2="536" y1="653"/>
            <text x="531" xml:space="preserve" font-size="8px" y="23" clip-path="url(#clipPath2)" stroke="none">2.5</text>
            <text x="531" xml:space="preserve" font-size="8px" y="662" clip-path="url(#clipPath2)" stroke="none">2.5</text>
            <line y2="30" fill="none" x1="553" clip-path="url(#clipPath2)" x2="553" y1="28"/>
            <line y2="649" fill="none" x1="553" clip-path="url(#clipPath2)" x2="553" y1="651"/>
            <line y2="30" fill="none" x1="570" clip-path="url(#clipPath2)" x2="570" y1="28"/>
            <line y2="649" fill="none" x1="570" clip-path="url(#clipPath2)" x2="570" y1="651"/>
            <line y2="30" fill="none" x1="587" clip-path="url(#clipPath2)" x2="587" y1="28"/>
            <line y2="649" fill="none" x1="587" clip-path="url(#clipPath2)" x2="587" y1="651"/>
            <line y2="30" fill="none" x1="604" clip-path="url(#clipPath2)" x2="604" y1="28"/>
            <line y2="649" fill="none" x1="604" clip-path="url(#clipPath2)" x2="604" y1="651"/>
            <line y2="30" fill="none" x1="621" clip-path="url(#clipPath2)" x2="621" y1="26"/>
            <line y2="649" fill="none" x1="621" clip-path="url(#clipPath2)" x2="621" y1="653"/>
            <text x="620" xml:space="preserve" font-size="8px" y="23" clip-path="url(#clipPath2)" stroke="none">3</text>
            <text x="620" xml:space="preserve" font-size="8px" y="662" clip-path="url(#clipPath2)" stroke="none">3</text>
            <line y2="30" fill="none" x1="638" clip-path="url(#clipPath2)" x2="638" y1="28"/>
            <line y2="649" fill="none" x1="638" clip-path="url(#clipPath2)" x2="638" y1="651"/>
            <line y2="30" fill="none" x1="655" clip-path="url(#clipPath2)" x2="655" y1="28"/>
            <line y2="649" fill="none" x1="655" clip-path="url(#clipPath2)" x2="655" y1="651"/>
            <line y2="30" fill="none" x1="672" clip-path="url(#clipPath2)" x2="672" y1="28"/>
            <line y2="649" fill="none" x1="672" clip-path="url(#clipPath2)" x2="672" y1="651"/>
            <line y2="30" fill="none" x1="689" clip-path="url(#clipPath2)" x2="689" y1="28"/>
            <line y2="649" fill="none" x1="689" clip-path="url(#clipPath2)" x2="689" y1="651"/>
            <line y2="30" fill="none" x1="705" clip-path="url(#clipPath2)" x2="705" y1="26"/>
            <line y2="649" fill="none" x1="705" clip-path="url(#clipPath2)" x2="705" y1="653"/>
            <text x="700" xml:space="preserve" font-size="8px" y="23" clip-path="url(#clipPath2)" stroke="none">3.5</text>
            <text x="700" xml:space="preserve" font-size="8px" y="662" clip-path="url(#clipPath2)" stroke="none">3.5</text>
            <line y2="30" fill="none" x1="722" clip-path="url(#clipPath2)" x2="722" y1="28"/>
            <line y2="649" fill="none" x1="722" clip-path="url(#clipPath2)" x2="722" y1="651"/>
            <line y2="30" fill="none" x1="739" clip-path="url(#clipPath2)" x2="739" y1="28"/>
            <line y2="649" fill="none" x1="739" clip-path="url(#clipPath2)" x2="739" y1="651"/>
            <line y2="30" fill="none" x1="756" clip-path="url(#clipPath2)" x2="756" y1="28"/>
            <line y2="649" fill="none" x1="756" clip-path="url(#clipPath2)" x2="756" y1="651"/>
            <line y2="30" fill="none" x1="773" clip-path="url(#clipPath2)" x2="773" y1="28"/>
            <line y2="649" fill="none" x1="773" clip-path="url(#clipPath2)" x2="773" y1="651"/>
            <line y2="30" fill="none" x1="790" clip-path="url(#clipPath2)" x2="790" y1="26"/>
            <line y2="649" fill="none" x1="790" clip-path="url(#clipPath2)" x2="790" y1="653"/>
            <text x="789" xml:space="preserve" font-size="8px" y="23" clip-path="url(#clipPath2)" stroke="none">4</text>
            <text x="789" xml:space="preserve" font-size="8px" y="662" clip-path="url(#clipPath2)" stroke="none">4</text>
            <line y2="30" fill="none" x1="807" clip-path="url(#clipPath2)" x2="807" y1="28"/>
            <line y2="649" fill="none" x1="807" clip-path="url(#clipPath2)" x2="807" y1="651"/>
            <line y2="30" fill="none" x1="824" clip-path="url(#clipPath2)" x2="824" y1="28"/>
            <line y2="649" fill="none" x1="824" clip-path="url(#clipPath2)" x2="824" y1="651"/>
            <line y2="30" fill="none" x1="841" clip-path="url(#clipPath2)" x2="841" y1="28"/>
            <line y2="649" fill="none" x1="841" clip-path="url(#clipPath2)" x2="841" y1="651"/>
            <line y2="30" fill="none" x1="858" clip-path="url(#clipPath2)" x2="858" y1="28"/>
            <line y2="649" fill="none" x1="858" clip-path="url(#clipPath2)" x2="858" y1="651"/>
            <line y2="30" fill="none" x1="875" clip-path="url(#clipPath2)" x2="875" y1="26"/>
            <line y2="649" fill="none" x1="875" clip-path="url(#clipPath2)" x2="875" y1="653"/>
            <text x="870" xml:space="preserve" font-size="8px" y="23" clip-path="url(#clipPath2)" stroke="none">4.5</text>
            <text x="870" xml:space="preserve" font-size="8px" y="662" clip-path="url(#clipPath2)" stroke="none">4.5</text>
            <line y2="30" fill="none" x1="892" clip-path="url(#clipPath2)" x2="892" y1="28"/>
            <line y2="649" fill="none" x1="892" clip-path="url(#clipPath2)" x2="892" y1="651"/>
            <line y2="30" fill="none" x1="909" clip-path="url(#clipPath2)" x2="909" y1="28"/>
            <line y2="649" fill="none" x1="909" clip-path="url(#clipPath2)" x2="909" y1="651"/>
            <line y2="30" fill="none" x1="926" clip-path="url(#clipPath2)" x2="926" y1="28"/>
            <line y2="649" fill="none" x1="926" clip-path="url(#clipPath2)" x2="926" y1="651"/>
            <line y2="30" fill="none" x1="942" clip-path="url(#clipPath2)" x2="942" y1="28"/>
            <line y2="649" fill="none" x1="942" clip-path="url(#clipPath2)" x2="942" y1="651"/>
            <line y2="30" fill="none" x1="959" clip-path="url(#clipPath2)" x2="959" y1="26"/>
            <line y2="649" fill="none" x1="959" clip-path="url(#clipPath2)" x2="959" y1="653"/>
            <text x="958" xml:space="preserve" font-size="8px" y="23" clip-path="url(#clipPath2)" stroke="none">5</text>
            <text x="958" xml:space="preserve" font-size="8px" y="662" clip-path="url(#clipPath2)" stroke="none">5</text>
            <line y2="30" fill="none" x1="976" clip-path="url(#clipPath2)" x2="976" y1="28"/>
            <line y2="649" fill="none" x1="976" clip-path="url(#clipPath2)" x2="976" y1="651"/>
            <line y2="30" fill="none" x1="993" clip-path="url(#clipPath2)" x2="993" y1="28"/>
            <line y2="649" fill="none" x1="993" clip-path="url(#clipPath2)" x2="993" y1="651"/>
            <line y2="30" fill="none" x1="1010" clip-path="url(#clipPath2)" x2="1010" y1="28"/>
            <line y2="649" fill="none" x1="1010" clip-path="url(#clipPath2)" x2="1010" y1="651"/>
            <line y2="30" fill="none" x1="1027" clip-path="url(#clipPath2)" x2="1027" y1="28"/>
            <line y2="649" fill="none" x1="1027" clip-path="url(#clipPath2)" x2="1027" y1="651"/>
            <line y2="30" fill="none" x1="1044" clip-path="url(#clipPath2)" x2="1044" y1="26"/>
            <line y2="649" fill="none" x1="1044" clip-path="url(#clipPath2)" x2="1044" y1="653"/>
            <text x="1039" xml:space="preserve" font-size="8px" y="23" clip-path="url(#clipPath2)" stroke="none">5.5</text>
            <text x="1039" xml:space="preserve" font-size="8px" y="662" clip-path="url(#clipPath2)" stroke="none">5.5</text>
            <line y2="30" fill="none" x1="1061" clip-path="url(#clipPath2)" x2="1061" y1="28"/>
            <line y2="649" fill="none" x1="1061" clip-path="url(#clipPath2)" x2="1061" y1="651"/>
            <line y2="30" fill="none" x1="1078" clip-path="url(#clipPath2)" x2="1078" y1="28"/>
            <line y2="649" fill="none" x1="1078" clip-path="url(#clipPath2)" x2="1078" y1="651"/>
            <line y2="30" fill="none" x1="1095" clip-path="url(#clipPath2)" x2="1095" y1="28"/>
            <line y2="649" fill="none" x1="1095" clip-path="url(#clipPath2)" x2="1095" y1="651"/>
            <line y2="30" fill="none" x1="1112" clip-path="url(#clipPath2)" x2="1112" y1="28"/>
            <line y2="649" fill="none" x1="1112" clip-path="url(#clipPath2)" x2="1112" y1="651"/>
            <line y2="647" fill="none" x1="20" clip-path="url(#clipPath2)" x2="20" y1="32"/>
            <line y2="647" fill="none" x1="1121" clip-path="url(#clipPath2)" x2="1121" y1="32"/>
            <line y2="647" fill="none" x1="16" clip-path="url(#clipPath2)" x2="20" y1="647"/>
            <line y2="647" fill="none" x1="1125" clip-path="url(#clipPath2)" x2="1121" y1="647"/>
            <text x="10" xml:space="preserve" font-size="8px" y="650" clip-path="url(#clipPath2)" stroke="none">0</text>
            <text x="1128" xml:space="preserve" font-size="8px" y="650" clip-path="url(#clipPath2)" stroke="none">0</text>
            <line y2="631" fill="none" x1="18" clip-path="url(#clipPath2)" x2="20" y1="631"/>
            <line y2="631" fill="none" x1="1123" clip-path="url(#clipPath2)" x2="1121" y1="631"/>
            <line y2="615" fill="none" x1="18" clip-path="url(#clipPath2)" x2="20" y1="615"/>
            <line y2="615" fill="none" x1="1123" clip-path="url(#clipPath2)" x2="1121" y1="615"/>
            <line y2="599" fill="none" x1="18" clip-path="url(#clipPath2)" x2="20" y1="599"/>
            <line y2="599" fill="none" x1="1123" clip-path="url(#clipPath2)" x2="1121" y1="599"/>
            <line y2="583" fill="none" x1="18" clip-path="url(#clipPath2)" x2="20" y1="583"/>
            <line y2="583" fill="none" x1="1123" clip-path="url(#clipPath2)" x2="1121" y1="583"/>
            <line y2="567" fill="none" x1="16" clip-path="url(#clipPath2)" x2="20" y1="567"/>
            <line y2="567" fill="none" x1="1125" clip-path="url(#clipPath2)" x2="1121" y1="567"/>
            <text x="10" xml:space="preserve" font-size="8px" y="570" clip-path="url(#clipPath2)" stroke="none">5</text>
            <text x="1128" xml:space="preserve" font-size="8px" y="570" clip-path="url(#clipPath2)" stroke="none">5</text>
            <line y2="551" fill="none" x1="18" clip-path="url(#clipPath2)" x2="20" y1="551"/>
            <line y2="551" fill="none" x1="1123" clip-path="url(#clipPath2)" x2="1121" y1="551"/>
            <line y2="535" fill="none" x1="18" clip-path="url(#clipPath2)" x2="20" y1="535"/>
            <line y2="535" fill="none" x1="1123" clip-path="url(#clipPath2)" x2="1121" y1="535"/>
            <line y2="519" fill="none" x1="18" clip-path="url(#clipPath2)" x2="20" y1="519"/>
            <line y2="519" fill="none" x1="1123" clip-path="url(#clipPath2)" x2="1121" y1="519"/>
            <line y2="503" fill="none" x1="18" clip-path="url(#clipPath2)" x2="20" y1="503"/>
            <line y2="503" fill="none" x1="1123" clip-path="url(#clipPath2)" x2="1121" y1="503"/>
            <line y2="487" fill="none" x1="16" clip-path="url(#clipPath2)" x2="20" y1="487"/>
            <line y2="487" fill="none" x1="1125" clip-path="url(#clipPath2)" x2="1121" y1="487"/>
            <text x="6" xml:space="preserve" font-size="8px" y="490" clip-path="url(#clipPath2)" stroke="none">10</text>
            <text x="1128" xml:space="preserve" font-size="8px" y="490" clip-path="url(#clipPath2)" stroke="none">10</text>
            <line y2="472" fill="none" x1="18" clip-path="url(#clipPath2)" x2="20" y1="472"/>
            <line y2="472" fill="none" x1="1123" clip-path="url(#clipPath2)" x2="1121" y1="472"/>
            <line y2="456" fill="none" x1="18" clip-path="url(#clipPath2)" x2="20" y1="456"/>
            <line y2="456" fill="none" x1="1123" clip-path="url(#clipPath2)" x2="1121" y1="456"/>
            <line y2="440" fill="none" x1="18" clip-path="url(#clipPath2)" x2="20" y1="440"/>
            <line y2="440" fill="none" x1="1123" clip-path="url(#clipPath2)" x2="1121" y1="440"/>
            <line y2="424" fill="none" x1="18" clip-path="url(#clipPath2)" x2="20" y1="424"/>
            <line y2="424" fill="none" x1="1123" clip-path="url(#clipPath2)" x2="1121" y1="424"/>
            <line y2="408" fill="none" x1="16" clip-path="url(#clipPath2)" x2="20" y1="408"/>
            <line y2="408" fill="none" x1="1125" clip-path="url(#clipPath2)" x2="1121" y1="408"/>
            <text x="6" xml:space="preserve" font-size="8px" y="411" clip-path="url(#clipPath2)" stroke="none">15</text>
            <text x="1128" xml:space="preserve" font-size="8px" y="411" clip-path="url(#clipPath2)" stroke="none">15</text>
            <line y2="392" fill="none" x1="18" clip-path="url(#clipPath2)" x2="20" y1="392"/>
            <line y2="392" fill="none" x1="1123" clip-path="url(#clipPath2)" x2="1121" y1="392"/>
            <line y2="376" fill="none" x1="18" clip-path="url(#clipPath2)" x2="20" y1="376"/>
            <line y2="376" fill="none" x1="1123" clip-path="url(#clipPath2)" x2="1121" y1="376"/>
            <line y2="360" fill="none" x1="18" clip-path="url(#clipPath2)" x2="20" y1="360"/>
            <line y2="360" fill="none" x1="1123" clip-path="url(#clipPath2)" x2="1121" y1="360"/>
            <line y2="344" fill="none" x1="18" clip-path="url(#clipPath2)" x2="20" y1="344"/>
            <line y2="344" fill="none" x1="1123" clip-path="url(#clipPath2)" x2="1121" y1="344"/>
            <line y2="328" fill="none" x1="16" clip-path="url(#clipPath2)" x2="20" y1="328"/>
            <line y2="328" fill="none" x1="1125" clip-path="url(#clipPath2)" x2="1121" y1="328"/>
            <text x="6" xml:space="preserve" font-size="8px" y="331" clip-path="url(#clipPath2)" stroke="none">20</text>
            <text x="1128" xml:space="preserve" font-size="8px" y="331" clip-path="url(#clipPath2)" stroke="none">20</text>
            <line y2="312" fill="none" x1="18" clip-path="url(#clipPath2)" x2="20" y1="312"/>
            <line y2="312" fill="none" x1="1123" clip-path="url(#clipPath2)" x2="1121" y1="312"/>
            <line y2="297" fill="none" x1="18" clip-path="url(#clipPath2)" x2="20" y1="297"/>
            <line y2="297" fill="none" x1="1123" clip-path="url(#clipPath2)" x2="1121" y1="297"/>
            <line y2="281" fill="none" x1="18" clip-path="url(#clipPath2)" x2="20" y1="281"/>
            <line y2="281" fill="none" x1="1123" clip-path="url(#clipPath2)" x2="1121" y1="281"/>
            <line y2="265" fill="none" x1="18" clip-path="url(#clipPath2)" x2="20" y1="265"/>
            <line y2="265" fill="none" x1="1123" clip-path="url(#clipPath2)" x2="1121" y1="265"/>
            <line y2="249" fill="none" x1="16" clip-path="url(#clipPath2)" x2="20" y1="249"/>
            <line y2="249" fill="none" x1="1125" clip-path="url(#clipPath2)" x2="1121" y1="249"/>
            <text x="6" xml:space="preserve" font-size="8px" y="252" clip-path="url(#clipPath2)" stroke="none">25</text>
            <text x="1128" xml:space="preserve" font-size="8px" y="252" clip-path="url(#clipPath2)" stroke="none">25</text>
            <line y2="233" fill="none" x1="18" clip-path="url(#clipPath2)" x2="20" y1="233"/>
            <line y2="233" fill="none" x1="1123" clip-path="url(#clipPath2)" x2="1121" y1="233"/>
            <line y2="217" fill="none" x1="18" clip-path="url(#clipPath2)" x2="20" y1="217"/>
            <line y2="217" fill="none" x1="1123" clip-path="url(#clipPath2)" x2="1121" y1="217"/>
            <line y2="201" fill="none" x1="18" clip-path="url(#clipPath2)" x2="20" y1="201"/>
            <line y2="201" fill="none" x1="1123" clip-path="url(#clipPath2)" x2="1121" y1="201"/>
            <line y2="185" fill="none" x1="18" clip-path="url(#clipPath2)" x2="20" y1="185"/>
            <line y2="185" fill="none" x1="1123" clip-path="url(#clipPath2)" x2="1121" y1="185"/>
            <line y2="169" fill="none" x1="16" clip-path="url(#clipPath2)" x2="20" y1="169"/>
            <line y2="169" fill="none" x1="1125" clip-path="url(#clipPath2)" x2="1121" y1="169"/>
            <text x="6" xml:space="preserve" font-size="8px" y="172" clip-path="url(#clipPath2)" stroke="none">30</text>
            <text x="1128" xml:space="preserve" font-size="8px" y="172" clip-path="url(#clipPath2)" stroke="none">30</text>
            <line y2="153" fill="none" x1="18" clip-path="url(#clipPath2)" x2="20" y1="153"/>
            <line y2="153" fill="none" x1="1123" clip-path="url(#clipPath2)" x2="1121" y1="153"/>
            <line y2="138" fill="none" x1="18" clip-path="url(#clipPath2)" x2="20" y1="138"/>
            <line y2="138" fill="none" x1="1123" clip-path="url(#clipPath2)" x2="1121" y1="138"/>
            <line y2="122" fill="none" x1="18" clip-path="url(#clipPath2)" x2="20" y1="122"/>
            <line y2="122" fill="none" x1="1123" clip-path="url(#clipPath2)" x2="1121" y1="122"/>
            <line y2="106" fill="none" x1="18" clip-path="url(#clipPath2)" x2="20" y1="106"/>
            <line y2="106" fill="none" x1="1123" clip-path="url(#clipPath2)" x2="1121" y1="106"/>
            <line y2="90" fill="none" x1="16" clip-path="url(#clipPath2)" x2="20" y1="90"/>
            <line y2="90" fill="none" x1="1125" clip-path="url(#clipPath2)" x2="1121" y1="90"/>
            <text x="6" xml:space="preserve" font-size="8px" y="93" clip-path="url(#clipPath2)" stroke="none">35</text>
            <text x="1128" xml:space="preserve" font-size="8px" y="93" clip-path="url(#clipPath2)" stroke="none">35</text>
            <line y2="74" fill="none" x1="18" clip-path="url(#clipPath2)" x2="20" y1="74"/>
            <line y2="74" fill="none" x1="1123" clip-path="url(#clipPath2)" x2="1121" y1="74"/>
            <line y2="58" fill="none" x1="18" clip-path="url(#clipPath2)" x2="20" y1="58"/>
            <line y2="58" fill="none" x1="1123" clip-path="url(#clipPath2)" x2="1121" y1="58"/>
            <line y2="42" fill="none" x1="18" clip-path="url(#clipPath2)" x2="20" y1="42"/>
            <line y2="42" fill="none" x1="1123" clip-path="url(#clipPath2)" x2="1121" y1="42"/>
        </g>
    </g>
</svg>
